
<svg id="visual" viewBox="0 0 900 900" width="900" height="900" xmlns="http://www.w3.org/2000/svg" xmlns:xlink="http://www.w3.org/1999/xlink" version="1.1"><path d="M0 181L82 244L164 307L245 253L327 208L409 163L491 262L573 235L655 172L736 226L818 226L900 199L900 0L818 0L736 0L655 0L573 0L491 0L409 0L327 0L245 0L164 0L82 0L0 0Z" fill="#0066ff"></path><path d="M0 334L82 469L164 424L245 352L327 307L409 298L491 460L573 424L655 424L736 343L818 397L900 370L900 197L818 224L736 224L655 170L573 233L491 260L409 161L327 206L245 251L164 305L82 242L0 179Z" fill="#007aff"></path><path d="M0 424L82 622L164 478L245 478L327 397L409 397L491 568L573 514L655 487L736 478L818 505L900 505L900 368L818 395L736 341L655 422L573 422L491 458L409 296L327 305L245 350L164 422L82 467L0 332Z" fill="#008cff"></path><path d="M0 586L82 703L164 577L245 658L327 478L409 505L491 649L573 703L655 613L736 640L818 613L900 631L900 503L818 503L736 476L655 485L573 512L491 566L409 395L327 395L245 476L164 476L82 620L0 422Z" fill="#2b9dfc"></path><path d="M0 901L82 901L164 901L245 901L327 901L409 901L491 901L573 901L655 901L736 901L818 901L900 901L900 629L818 611L736 638L655 611L573 701L491 647L409 503L327 476L245 656L164 575L82 701L0 584Z" fill="#4facf7"></path></svg>